<?xml version="1.0" encoding="iso-8859-1"?>
<!-- Generator: Adobe Illustrator 19.0.0, SVG Export Plug-In . SVG Version: 6.00 Build 0)  -->
<svg version="1.1" id="Layer_1" xmlns="http://www.w3.org/2000/svg" xmlns:xlink="http://www.w3.org/1999/xlink" x="0px" y="0px"
	 viewBox="0 0 975.946 975.946" style="enable-background:new 0 0 975.946 975.946;" xml:space="preserve">
<g>
	<g>
		<path d="M812.102,213.226v651.171h163.844V213.226H812.102z M933.853,822.302h-79.656V255.317h79.656V822.302z"/>
	</g>
</g>
<g>
	<g>
		<path d="M609.076,111.549V864.07H772.92V111.549H609.076z M730.827,821.977h-79.656V153.644h79.656V821.977z"/>
	</g>
</g>
<g>
	<g>
		<path d="M406.051,375.451v488.62h163.844v-488.62H406.051z M527.802,821.977h-79.656V417.545h79.656V821.977z"/>
	</g>
</g>
<g>
	<g>
		<path d="M203.025,598.876v265.521H366.87V598.876H203.025z M324.776,822.302H245.12v-181.33h79.656V822.302z"/>
	</g>
</g>
<g>
	<g>
		<path d="M0,436.325v427.747h163.844V436.325H0z M121.751,821.977H42.095V478.422h79.656V821.977z"/>
	</g>
</g>
<g>
</g>
<g>
</g>
<g>
</g>
<g>
</g>
<g>
</g>
<g>
</g>
<g>
</g>
<g>
</g>
<g>
</g>
<g>
</g>
<g>
</g>
<g>
</g>
<g>
</g>
<g>
</g>
<g>
</g>
</svg>
