<svg id="Capa_1" enable-background="new 0 0 512 512" height="512" viewBox="0 0 512 512" width="512" xmlns="http://www.w3.org/2000/svg"><g><g><path d="m335 512h-320c-8.284 0-15-6.716-15-15v-412c0-8.284 6.716-15 15-15h320c8.284 0 15 6.716 15 15v412c0 8.284-6.716 15-15 15z" fill="#7878ee"/><path d="m335 70h-160v442h160c8.284 0 15-6.716 15-15v-412c0-8.284-6.716-15-15-15z" fill="#5a5ade"/><path d="m30 100h290v382h-290z" fill="#ebebff"/><path d="m175 100h145v382h-145z" fill="#c8c8d7"/><path d="m195 190h-120c-8.284 0-15-6.716-15-15s6.716-15 15-15h120c8.284 0 15 6.716 15 15s-6.716 15-15 15z" fill="#646464"/><path d="m195 250h-120c-8.284 0-15-6.716-15-15s6.716-15 15-15h120c8.284 0 15 6.716 15 15s-6.716 15-15 15z" fill="#646464"/><path d="m195 310h-120c-8.284 0-15-6.716-15-15s6.716-15 15-15h120c8.284 0 15 6.716 15 15s-6.716 15-15 15z" fill="#646464"/><path d="m195 370h-120c-8.284 0-15-6.716-15-15s6.716-15 15-15h120c8.284 0 15 6.716 15 15s-6.716 15-15 15z" fill="#646464"/><path d="m195 430h-120c-8.284 0-15-6.716-15-15s6.716-15 15-15h120c8.284 0 15 6.716 15 15s-6.716 15-15 15z" fill="#646464"/><g fill="#4b4b4b"><path d="m195 160h-20v30h20c8.284 0 15-6.716 15-15s-6.716-15-15-15z"/><path d="m195 220h-20v30h20c8.284 0 15-6.716 15-15s-6.716-15-15-15z"/><path d="m195 280h-20v30h20c8.284 0 15-6.716 15-15s-6.716-15-15-15z"/><path d="m195 340h-20v30h20c8.284 0 15-6.716 15-15s-6.716-15-15-15z"/><path d="m195 400h-20v30h20c8.284 0 15-6.716 15-15s-6.716-15-15-15z"/><path d="m275 190h-20c-8.284 0-15-6.716-15-15s6.716-15 15-15h20c8.284 0 15 6.716 15 15s-6.716 15-15 15z"/><path d="m275 250h-20c-8.284 0-15-6.716-15-15s6.716-15 15-15h20c8.284 0 15 6.716 15 15s-6.716 15-15 15z"/></g><path d="m265 125h-180c-4.494 0-8.751-2.015-11.601-5.49-2.849-3.476-3.989-8.045-3.108-12.452l2.095-10.472c5.102-25.511 23.539-45.745 47.614-53.55v-28.036c0-8.284 6.716-15 15-15h80c8.284 0 15 6.716 15 15v28.036c24.075 7.805 42.513 28.04 47.614 53.551l2.095 10.471c.881 4.407-.26 8.977-3.108 12.452-2.85 3.475-7.107 5.49-11.601 5.49z" fill="#ffe146"/><path d="m277.614 96.587c-5.101-25.511-23.539-45.746-47.614-53.551v-28.036c0-8.284-6.716-15-15-15h-40v125h90c4.494 0 8.751-2.015 11.601-5.49 2.849-3.476 3.989-8.045 3.108-12.452z" fill="#fac814"/></g><g><path d="m342.105 512c-10.469.001-20.911-3.754-29.249-11.206l-6.907-6.174c-35.97-32.147-60.523-74.03-71.006-121.121-.11-.494-.195-.995-.255-1.498-4.266-36.1 13.469-71.122 45.181-89.226 26.263-14.993 59.197-15.205 88.095-.56 2.042 1.034 3.9 1.975 5.507 2.787 17.025-7.293 36.294-14.033 56.168-13.188.202.009.404.021.606.038 12.996 1.083 25.028 4.723 35.761 10.817 31.836 18.077 49.643 53.141 45.366 89.329-.06.503-.145 1.004-.255 1.498-10.482 47.092-35.036 88.976-71.006 121.124l-6.906 6.172c-16.008 14.308-39.814 14.981-56.605 1.605l-3.577-2.849-3.487 2.791c-8.069 6.455-17.762 9.66-27.431 9.661z" fill="#ff6455"/><path d="m466.005 282.67c-10.732-6.095-22.765-9.734-35.761-10.817-.202-.017-.404-.029-.606-.038-19.874-.845-39.143 5.896-56.168 13.188-.141-.071-.295-.149-.44-.223v214.776l3.569 2.842c16.791 13.376 40.598 12.702 56.605-1.605l6.906-6.172c35.97-32.148 60.523-74.032 71.006-121.124.11-.494.195-.995.255-1.498 4.277-36.188-13.53-71.252-45.366-89.329z" fill="#fa320a"/><path d="m373.03 316.571c-8.284 0-15-6.716-15-15v-20.318c0-12.46-7.342-23.814-18.703-28.927-7.555-3.399-10.923-12.279-7.523-19.834 3.399-7.554 12.275-10.924 19.834-7.523 22.107 9.947 36.393 32.04 36.393 56.284v20.318c-.001 8.284-6.717 15-15.001 15z" fill="#85dc5a"/><g fill="#5fbe64"><path d="m373.03 316.571c8.284 0 15-6.716 15-15v-20.318c0-15.065-5.519-29.297-15-40.302z"/><path d="m395.33 296.571h-12.3c-2.762 0-5-2.238-5-5v-12.304c0-42.631 34.684-77.314 77.314-77.314h12.3c2.762 0 5 2.238 5 5v12.304c0 42.631-34.683 77.314-77.314 77.314z"/></g></g></g></svg>