<svg width="512" height="512" xmlns="http://www.w3.org/2000/svg">

 <g>
  <title>background</title>
  <rect fill="none" id="canvas_background" height="402" width="582" y="-1" x="-1"/>
 </g>
 <g>
  <title>Layer 1</title>
  <g id="svg_1">
   <g id="svg_2">
    <path id="svg_3" fill="#7878ee" d="m335,512l-320,0c-8.284,0 -15,-6.716 -15,-15l0,-412c0,-8.284 6.716,-15 15,-15l320,0c8.284,0 15,6.716 15,15l0,412c0,8.284 -6.716,15 -15,15z"/>
    <path id="svg_4" fill="#5a5ade" d="m335,70l-160,0l0,442l160,0c8.284,0 15,-6.716 15,-15l0,-412c0,-8.284 -6.716,-15 -15,-15z"/>
    <path id="svg_5" fill="#ebebff" d="m30,100l290,0l0,382l-290,0l0,-382z"/>
    <path id="svg_6" fill="#c8c8d7" d="m175,100l145,0l0,382l-145,0l0,-382z"/>
    <path id="svg_7" fill="#646464" d="m195,190l-120,0c-8.284,0 -15,-6.716 -15,-15s6.716,-15 15,-15l120,0c8.284,0 15,6.716 15,15s-6.716,15 -15,15z"/>
    <path id="svg_8" fill="#646464" d="m195,250l-120,0c-8.284,0 -15,-6.716 -15,-15s6.716,-15 15,-15l120,0c8.284,0 15,6.716 15,15s-6.716,15 -15,15z"/>
    <path id="svg_9" fill="#646464" d="m195,310l-120,0c-8.284,0 -15,-6.716 -15,-15s6.716,-15 15,-15l120,0c8.284,0 15,6.716 15,15s-6.716,15 -15,15z"/>
    <path id="svg_10" fill="#646464" d="m195,370l-120,0c-8.284,0 -15,-6.716 -15,-15s6.716,-15 15,-15l120,0c8.284,0 15,6.716 15,15s-6.716,15 -15,15z"/>
    <path id="svg_11" fill="#646464" d="m195,430l-120,0c-8.284,0 -15,-6.716 -15,-15s6.716,-15 15,-15l120,0c8.284,0 15,6.716 15,15s-6.716,15 -15,15z"/>
    <g id="svg_12" fill="#4b4b4b">
     <path id="svg_13" d="m195,160l-20,0l0,30l20,0c8.284,0 15,-6.716 15,-15s-6.716,-15 -15,-15z"/>
     <path id="svg_14" d="m195,220l-20,0l0,30l20,0c8.284,0 15,-6.716 15,-15s-6.716,-15 -15,-15z"/>
     <path id="svg_15" d="m195,280l-20,0l0,30l20,0c8.284,0 15,-6.716 15,-15s-6.716,-15 -15,-15z"/>
     <path id="svg_16" d="m195,340l-20,0l0,30l20,0c8.284,0 15,-6.716 15,-15s-6.716,-15 -15,-15z"/>
     <path id="svg_17" d="m195,400l-20,0l0,30l20,0c8.284,0 15,-6.716 15,-15s-6.716,-15 -15,-15z"/>
     <path id="svg_18" d="m275,190l-20,0c-8.284,0 -15,-6.716 -15,-15s6.716,-15 15,-15l20,0c8.284,0 15,6.716 15,15s-6.716,15 -15,15z"/>
     <path id="svg_19" d="m275,250l-20,0c-8.284,0 -15,-6.716 -15,-15s6.716,-15 15,-15l20,0c8.284,0 15,6.716 15,15s-6.716,15 -15,15z"/>
    </g>
    <path id="svg_20" fill="#ffe146" d="m265,125l-180,0c-4.494,0 -8.751,-2.015 -11.601,-5.49c-2.849,-3.476 -3.989,-8.045 -3.108,-12.452l2.095,-10.472c5.102,-25.511 23.539,-45.745 47.614,-53.55l0,-28.036c0,-8.284 6.716,-15 15,-15l80,0c8.284,0 15,6.716 15,15l0,28.036c24.075,7.805 42.513,28.04 47.614,53.551l2.095,10.471c0.881,4.407 -0.26,8.977 -3.108,12.452c-2.85,3.475 -7.107,5.49 -11.601,5.49z"/>
    <path id="svg_21" fill="#fac814" d="m277.614,96.587c-5.101,-25.511 -23.539,-45.746 -47.614,-53.551l0,-28.036c0,-8.284 -6.716,-15 -15,-15l-40,0l0,125l90,0c4.494,0 8.751,-2.015 11.601,-5.49c2.849,-3.476 3.989,-8.045 3.108,-12.452l-2.095,-10.471z"/>
   </g>
   <g id="svg_22">
    <path id="svg_23" fill="#ff6455" d="m342.105,512c-10.469,0.001 -20.911,-3.754 -29.249,-11.206l-6.907,-6.174c-35.97,-32.147 -60.523,-74.03 -71.006,-121.121c-0.11,-0.494 -0.195,-0.995 -0.255,-1.498c-4.266,-36.1 13.469,-71.122 45.181,-89.226c26.263,-14.993 59.197,-15.205 88.095,-0.56c2.042,1.034 3.9,1.975 5.507,2.787c17.025,-7.293 36.294,-14.033 56.168,-13.188c0.202,0.009 0.404,0.021 0.606,0.038c12.996,1.083 25.028,4.723 35.761,10.817c31.836,18.077 49.643,53.141 45.366,89.329c-0.06,0.503 -0.145,1.004 -0.255,1.498c-10.482,47.092 -35.036,88.976 -71.006,121.124l-6.906,6.172c-16.008,14.308 -39.814,14.981 -56.605,1.605l-3.577,-2.849l-3.487,2.791c-8.069,6.455 -17.762,9.66 -27.431,9.661z"/>
    <path id="svg_24" fill="#fa320a" d="m466.005,282.67c-10.732,-6.095 -22.765,-9.734 -35.761,-10.817c-0.202,-0.017 -0.404,-0.029 -0.606,-0.038c-19.874,-0.845 -39.143,5.896 -56.168,13.188c-0.141,-0.071 -0.295,-0.149 -0.44,-0.223l0,214.776l3.569,2.842c16.791,13.376 40.598,12.702 56.605,-1.605l6.906,-6.172c35.97,-32.148 60.523,-74.032 71.006,-121.124c0.11,-0.494 0.195,-0.995 0.255,-1.498c4.277,-36.188 -13.53,-71.252 -45.366,-89.329z"/>
    <path id="svg_25" fill="#85dc5a" d="m373.03,316.571c-8.284,0 -15,-6.716 -15,-15l0,-20.318c0,-12.46 -7.342,-23.814 -18.703,-28.927c-7.555,-3.399 -10.923,-12.279 -7.523,-19.834c3.399,-7.554 12.275,-10.924 19.834,-7.523c22.107,9.947 36.393,32.04 36.393,56.284l0,20.318c-0.001,8.284 -6.717,15 -15.001,15z"/>
    <g id="svg_26" fill="#5fbe64">
     <path id="svg_27" d="m373.03,316.571c8.284,0 15,-6.716 15,-15l0,-20.318c0,-15.065 -5.519,-29.297 -15,-40.302l0,75.62z"/>
     <path id="svg_28" d="m395.33,296.571l-12.3,0c-2.762,0 -5,-2.238 -5,-5l0,-12.304c0,-42.631 34.684,-77.314 77.314,-77.314l12.3,0c2.762,0 5,2.238 5,5l0,12.304c0,42.631 -34.683,77.314 -77.314,77.314z"/>
    </g>
   </g>
  </g>
  <path id="svg_29" d="m394.522538,65.496991l34.377195,0l10.622818,-34.758999l10.622824,34.758999l34.37719,0l-27.811684,21.481996l10.623367,34.758999l-27.811697,-21.482582l-27.81169,21.482582l10.62337,-34.758999l-27.811693,-21.481996z" stroke-opacity="null" stroke-width="null" stroke="null" fill="#ffff00"/>
  <path stroke="null" id="svg_31" d="m354.522544,176.510111l20.244348,0l6.255659,-21.772121l6.255663,21.772121l20.244345,0l-16.377992,13.455756l6.255983,21.772121l-16.377999,-13.456123l-16.377995,13.456123l6.255984,-21.772121l-16.377997,-13.455756z" stroke-opacity="null" stroke-width="null" fill="#ffff00"/>
  <path stroke="null" id="svg_32" d="m-6.477456,433.282236l48.128063,0l14.871941,-43.544248l14.87195,43.544248l48.128056,0l-38.936348,26.911516l14.872711,43.544248l-38.936369,-26.91225l-38.936357,26.91225l14.872716,-43.544248l-38.936362,-26.911516z" stroke-opacity="null" stroke-width="null" fill="#ffff00"/>
  <path stroke="null" id="svg_33" d="m17.522544,127.510111l20.244348,0l6.255659,-21.772121l6.255663,21.772121l20.244345,0l-16.377991,13.455756l6.255983,21.772121l-16.378,-13.456123l-16.377995,13.456123l6.255985,-21.772121l-16.377997,-13.455756z" stroke-opacity="null" stroke-width="null" fill="#ffff00"/>
  <text xml:space="preserve" text-anchor="start" font-family="Arvo, sans-serif" font-size="57" id="svg_34" y="415.85" x="345.5" stroke-width="0" fill="#85dc5a">10</text>
 </g>
</svg>