<svg width="512" height="512" xmlns="http://www.w3.org/2000/svg">

 <g>
  <title>background</title>
  <rect fill="none" id="canvas_background" height="402" width="582" y="-1" x="-1"/>
 </g>
 <g>
  <title>Layer 1</title>
  <g id="_Group_">
   <path id="svg_1" fill="#f8ec7d" d="m412.04,16l15.45,126.68l-46.34,0l-6.64,-21.78l-21.89,-71.79l-10.09,-33.11l69.51,0zm-21.84,22.16a9.27,9.27 0 1 0 -9.27,9.27a9.267,9.267 0 0 0 9.27,-9.27z"/>
   <path id="svg_2" fill="#f7caa5" d="m322.45,397.71l7.06,-3.72l42.45,-22.9l5.1,-2.75a23.175,23.175 0 0 1 30.88,8.44l-100.07,68.71a70.01,70.01 0 0 1 -43.58,6.15l-57.84,-10.65a21.522,21.522 0 0 0 -15.74,2.09l-31.33,19.81l-21.89,-71.79l0.18,-0.06a37.635,37.635 0 0 0 18.17,-8.88l9.58,-8.54a64.043,64.043 0 0 1 66.39,-6.48l3.97,1.92a45.829,45.829 0 0 0 19.92,4.56l38.49,0a28.629,28.629 0 0 1 28.26,24.09z"/>
   <path id="svg_3" fill="#e48e66" d="m380.93,28.9a9.265,9.265 0 1 1 -9.27,9.26a9.267,9.267 0 0 1 9.27,-9.26z"/>
   <path id="svg_4" fill="#f7caa5" d="m198.9,131.24a28.545,28.545 0 0 1 -9.35,-16.95l-7.06,3.72l-42.45,22.9l-5.1,2.75a23.175,23.175 0 0 1 -30.88,-8.44l100.07,-68.71a70.01,70.01 0 0 1 43.58,-6.15l57.84,10.65a21.522,21.522 0 0 0 15.74,-2.09l31.33,-19.81l21.89,71.79l-0.18,0.06a37.635,37.635 0 0 0 -18.17,8.88l-9.58,8.54a64.043,64.043 0 0 1 -66.39,6.48l-3.97,-1.92a45.829,45.829 0 0 0 -19.92,-4.56l-38.49,0a28.466,28.466 0 0 1 -18.91,-7.14z"/>
   <path id="svg_5" fill="#edb288" d="m371.93,371.03l0.03,0.06l-42.45,22.9l-7.06,3.72a28.545,28.545 0 0 0 -9.35,-16.95l27.29,-14.71l6.94,-3.74c8.59,-4.35 19.85,0.35 24.6,8.72z"/>
   <path id="svg_6" fill="#edb288" d="m340.05,365.43l0.34,0.62l-27.29,14.71a28.466,28.466 0 0 0 -18.91,-7.14l-8.53,0l22.7,-12.34a26.212,26.212 0 0 1 31.69,4.15z"/>
   <path id="svg_7" fill="#6fe3ff" d="m314.65,249.88c24.4,41.64 -10.07,93.96 -58.65,93.96c-37.56,0 -66.69,-31.28 -66.69,-64.82a57.963,57.963 0 0 1 8.04,-29.37l58.65,-81.49l58.65,81.72z"/>
   <path id="svg_8" fill="#edb288" d="m226.34,138.38l-22.7,12.34a26.212,26.212 0 0 1 -31.69,-4.15l-0.34,-0.62l27.29,-14.71a28.466,28.466 0 0 0 18.91,7.14l8.53,0z"/>
   <path id="svg_9" fill="#edb288" d="m198.9,131.24l-27.29,14.71l-6.94,3.74c-8.59,4.35 -19.85,-0.35 -24.6,-8.72l-0.03,-0.06l42.45,-22.9l7.06,-3.72a28.545,28.545 0 0 0 9.35,16.95z"/>
   <path id="svg_10" fill="#f8ec7d" d="m159.38,462.89l10.09,33.11l-69.51,0l-15.45,-126.68l46.34,0l6.64,21.78l21.89,71.79zm-19.04,10.95a9.27,9.27 0 1 0 -9.27,9.26a9.27,9.27 0 0 0 9.27,-9.26z"/>
   <path id="svg_11" fill="#e48e66" d="m131.07,464.57a9.265,9.265 0 1 1 -9.27,9.27a9.27,9.27 0 0 1 9.27,-9.27z"/>
   <g id="svg_12" fill="#63316d">
    <path id="svg_13" d="m374.212,363.059l-0.519,0.279c-7.483,-8.159 -19.672,-11.143 -29.074,-6.381c-0.045,0.022 -0.091,0.047 -0.136,0.07l-3.056,1.648a32.229,32.229 0 0 0 -36,-2.629l-21.292,11.574l-28.435,0a40.016,40.016 0 0 1 -17.307,-3.962l-3.969,-1.919a69.767,69.767 0 0 0 -72.611,7.086c-0.132,0.1 -0.261,0.2 -0.385,0.317l-9.575,8.535a31.576,31.576 0 0 1 -10.321,6.107l-4.943,-16.214a6,6 0 0 0 -5.739,-4.25l-46.34,0a6,6 0 0 0 -5.956,6.727l15.446,126.68a6,6 0 0 0 5.96,5.273l69.51,0a6,6 0 0 0 5.739,-7.749l-8.757,-28.735l27.319,-17.273a15.469,15.469 0 0 1 11.229,-1.431c0.122,0.03 0.244,0.056 0.366,0.079l57.855,10.652a76.517,76.517 0 0 0 47.314,-6.676a6,6 0 0 0 0.735,-0.43l100.07,-68.71a6,6 0 0 0 1.745,-8.039a29.133,29.133 0 0 0 -38.873,-10.629zm-24.112,4.574c3.674,-1.825 8.585,-0.943 12.388,1.75l-35.775,19.3l-0.552,0.29a34.686,34.686 0 0 0 -3.572,-6.514l27.511,-14.826zm-38.73,-1.162a20.218,20.218 0 0 1 17.816,-1.2l-15.507,8.359a34.458,34.458 0 0 0 -8.022,-4.053l5.569,-3.027l0.144,-0.079zm-206.098,123.529l-13.986,-114.68l35.12,0l27.235,89.32l7.728,25.36l-56.097,0zm199.562,-49.7a64.449,64.449 0 0 1 -39.457,5.442l-57.667,-10.621a27.414,27.414 0 0 0 -19.934,2.726c-0.092,0.051 -0.183,0.105 -0.272,0.162l-24.68,15.6l-17.788,-58.339a43.576,43.576 0 0 0 14.8,-8.635l9.39,-8.37a57.812,57.812 0 0 1 59.975,-5.728l3.973,1.921a52.092,52.092 0 0 0 22.53,5.158l38.49,0a22.636,22.636 0 0 1 21.723,16.3l-25.659,-1.157a169.033,169.033 0 0 0 -30.664,1.411a6,6 0 1 0 1.64,11.886a156.466,156.466 0 0 1 28.48,-1.309l32.829,1.48c0.091,0 0.181,0.006 0.271,0.006a6,6 0 0 0 6,-6c0,-0.361 -0.032,-0.717 -0.043,-1.077l3.591,-1.892l47.554,-25.653a17.16,17.16 0 0 1 19.209,1.94l-94.291,64.749z"/>
    <path id="svg_14" d="m131.07,458.57a15.265,15.265 0 1 0 15.27,15.27a15.287,15.287 0 0 0 -15.27,-15.27zm0,18.53a3.265,3.265 0 1 1 3.27,-3.26a3.268,3.268 0 0 1 -3.27,3.26z"/>
    <path id="svg_15" d="m418,15.273a6,6 0 0 0 -5.96,-5.273l-69.51,0a6,6 0 0 0 -5.739,7.749l8.756,28.734l-27.318,17.274a15.464,15.464 0 0 1 -11.229,1.431c-0.122,-0.03 -0.244,-0.057 -0.366,-0.079l-57.852,-10.652a76.512,76.512 0 0 0 -47.314,6.676a6.135,6.135 0 0 0 -0.735,0.43l-100.07,68.711a6,6 0 0 0 -1.745,8.038a29.123,29.123 0 0 0 38.87,10.629l0.524,-0.283a26.6,26.6 0 0 0 19.277,8.661a21.592,21.592 0 0 0 9.792,-2.277c0.045,-0.022 0.091,-0.046 0.135,-0.07l3.04,-1.638a32.217,32.217 0 0 0 36.018,2.62l21.291,-11.574l28.435,0a40.013,40.013 0 0 1 17.307,3.962l3.969,1.918a69.765,69.765 0 0 0 72.611,-7.085c0.132,-0.1 0.261,-0.206 0.385,-0.316l9.575,-8.536a31.582,31.582 0 0 1 10.32,-6.107l4.944,16.214a6,6 0 0 0 5.739,4.25l46.34,0a6,6 0 0 0 5.956,-6.726l-15.446,-126.681zm-256.1,129.094c-3.676,1.826 -8.587,0.945 -12.389,-1.749l35.776,-19.3l0.552,-0.291a34.751,34.751 0 0 0 3.572,6.515l-27.511,14.825zm38.73,1.163a20.224,20.224 0 0 1 -17.816,1.2l15.508,-8.358a34.438,34.438 0 0 0 8.022,4.053l-5.57,3.028q-0.074,0.035 -0.144,0.077zm151.538,-20.169l-9.39,8.37a57.8,57.8 0 0 1 -59.975,5.727l-3.973,-1.921a52.1,52.1 0 0 0 -22.53,-5.157l-38.49,0a22.639,22.639 0 0 1 -21.723,-16.3l25.66,1.157a168.752,168.752 0 0 0 30.662,-1.41a6,6 0 0 0 -1.638,-11.888a156.776,156.776 0 0 1 -28.481,1.31l-32.829,-1.48a6,6 0 0 0 -6.271,5.994c0,0.361 0.032,0.717 0.043,1.077l-3.591,1.892l-47.554,25.652a17.157,17.157 0 0 1 -19.209,-1.939l94.287,-64.745a64.4,64.4 0 0 1 39.457,-5.442l57.667,10.621a27.429,27.429 0 0 0 19.935,-2.726c0.091,-0.051 0.182,-0.105 0.272,-0.162l24.679,-15.6l17.788,58.339a43.576,43.576 0 0 0 -14.796,8.631zm33.426,11.319l-27.235,-89.32l-7.728,-25.36l56.1,0l13.986,114.68l-35.123,0z"/>
    <path id="svg_16" d="m380.93,22.9a15.265,15.265 0 1 0 15.27,15.26a15.282,15.282 0 0 0 -15.27,-15.26zm0,18.53a3.265,3.265 0 1 1 3.27,-3.27a3.274,3.274 0 0 1 -3.27,3.27z"/>
    <path id="svg_17" d="m256,349.84a73.491,73.491 0 0 0 63.507,-37.04c12.063,-21.051 12.183,-45.705 0.32,-65.95c-0.094,-0.16 -0.194,-0.315 -0.3,-0.466l-58.65,-81.719a6,6 0 0 0 -4.871,-2.5a6,6 0 0 0 -4.87,2.5l-58.651,81.49c-0.113,0.157 -0.217,0.319 -0.315,0.487a63.651,63.651 0 0 0 -8.854,32.388c-0.006,38.378 33.284,70.81 72.684,70.81zm-53.606,-96.927l53.6,-74.472l53.616,74.706c9.669,16.683 9.486,36.234 -0.514,53.683a61.461,61.461 0 0 1 -53.096,31.01a60.649,60.649 0 0 1 -43.182,-18.069c-11.127,-11.16 -17.508,-26.013 -17.508,-40.751a51.749,51.749 0 0 1 7.084,-26.107z"/>
    <path id="svg_18" d="m255.55,319.34a41.552,41.552 0 0 0 41.6,-41.41a6,6 0 1 0 -12,0a29.539,29.539 0 0 1 -29.6,29.41a6,6 0 0 0 0,12z"/>
   </g>
   <text font-weight="bold" xml:space="preserve" text-anchor="start" font-family="Helvetica, Arial, sans-serif" font-size="32" id="svg_25" y="278.85" x="237.5" stroke-width="0" fill="#0000bf">10</text>
   <path id="svg_26" d="m116.952505,189.147267l21.39025,0l6.609752,-20.244248l6.609756,20.244248l21.390246,0l-17.305044,12.51149l6.610094,20.244248l-17.305051,-12.511831l-17.305048,12.511831l6.610096,-20.244248l-17.30505,-12.51149z" stroke-width="1.5" fill="#ffff00"/>
   <path id="svg_27" d="m350.742515,305.318341l21.00829,0l6.491723,-19.480321l6.491727,19.480321l21.008286,0l-16.996032,12.039362l6.492059,19.480321l-16.99604,-12.03969l-16.996036,12.03969l6.492061,-19.480321l-16.996038,-12.039362z" stroke-width="1.5" fill="#ffff00"/>
   <path stroke="null" id="svg_28" d="m48.1875,299.996127l34.377182,0l10.622814,-33.613099l10.62282,33.613099l34.377176,0l-27.811674,20.7738l10.623363,33.613099l-27.811686,-20.774365l-27.81168,20.774365l10.623366,-33.613099l-27.811683,-20.7738z" stroke-opacity="null" stroke-width="1.5" fill="#ffff00"/>
   <path id="svg_29" d="m365.572495,192.656109l38.196883,0l11.803131,-33.613102l11.803137,33.613102l38.196876,0l-30.901871,20.773802l11.803741,33.613102l-30.901884,-20.774367l-30.901878,20.774367l11.803745,-33.613102l-30.901881,-20.773802z" fill-opacity="null" stroke-opacity="null" stroke-width="1.5" stroke="null" fill="#ffff00"/>
  </g>
  <text filter="url(#svg_20_blur)" font-style="italic" font-weight="bold" xml:space="preserve" text-anchor="start" font-family="Helvetica, Arial, sans-serif" font-size="24" id="svg_20" y="265.85" x="242.125" stroke-width="0" stroke="#000" fill="#000000">10</text>
 </g>
</svg>