<svg width="512" height="512.00002" xmlns="http://www.w3.org/2000/svg">

 <g>
  <title>background</title>
  <rect fill="none" id="canvas_background" height="402" width="582" y="-1" x="-1"/>
 </g>
 <g>
  <title>Layer 1</title>
  <path id="svg_1" fill="#89c8fd" d="m386.101562,294.554688c0,-93.058594 -75.238281,-168.496094 -168.050781,-168.496094s-168.050781,75.4375 -168.050781,168.496094c0,93.058593 75.238281,168.496093 168.050781,168.496093s168.050781,-75.4375 168.050781,-168.496093zm0,0"/>
  <path id="svg_2" fill="#60b6ff" d="m218.050781,126.058594c-8.625,0 -17.101562,0.652344 -25.375,1.910156c80.769531,12.265625 142.671875,82.175781 142.671875,166.585938c0,84.410156 -61.902344,154.320312 -142.671875,166.585937c8.273438,1.257813 16.75,1.910156 25.375,1.910156c92.8125,0 168.050781,-75.4375 168.050781,-168.496093c0,-93.058594 -75.238281,-168.496094 -168.050781,-168.496094zm0,0"/>
  <g id="svg_3" fill="#baeb6c">
   <path id="svg_4" d="m196.207031,191.542969c-25.886719,16.222656 -45.304687,42.175781 -30.742187,71.378906c14.5625,29.199219 46.921875,17.84375 76.855468,13.789063c29.933594,-4.054688 7.28125,88.414062 25.078126,111.125c17.796874,22.710937 67.953124,-22.710938 63.101562,-51.914063c-7.1875,-43.234375 -9.707031,-58.402344 48.539062,-89.222656l0.15625,-0.058594c-19.632812,-66.480469 -79.0625,-115.808594 -150.621093,-120.242187l-0.007813,0.253906s-6.472656,48.667968 -32.359375,64.890625zm0,0"/>
   <path id="svg_5" d="m323.339844,163.238281c0.011718,0.007813 0.023437,0.019531 0.035156,0.027344c-0.011719,-0.007813 -0.023438,-0.015625 -0.035156,-0.027344zm0,0"/>
   <path id="svg_6" d="m343.890625,182.894531c0,0.003907 0.003906,0.007813 0.007813,0.007813c-0.003907,-0.003906 -0.003907,-0.003906 -0.007813,-0.007813zm0,0"/>
   <path id="svg_7" d="m106.410156,370.800781c-7.773437,-11.855469 13.753906,-39.742187 18.605469,-60.832031c4.855469,-21.089844 -24.269531,-19.46875 -33.167969,-26.769531c-8.898437,-7.300781 -21.035156,-38.933594 -29.933594,-46.234375l-1.421874,-1.121094c-6.78125,18.28125 -10.492188,38.0625 -10.492188,58.710938c0,55.695312 26.953125,105.070312 68.492188,135.746093l0.050781,-3.53125s6.472656,-27.578125 -12.132813,-55.96875zm0,0"/>
   <path id="svg_8" d="m330.5,335.921875c-0.035156,-0.210937 -0.070312,-0.417969 -0.105469,-0.628906c-3.214843,12.988281 -7.933593,25.382812 -13.960937,36.984375c9.558594,-11.28125 15.945312,-25.035156 14.066406,-36.355469zm0,0"/>
  </g>
  <path id="svg_9" fill="#96d629" d="m228.574219,126.398438l-0.007813,0.253906s-0.539062,4.0625 -1.929687,10.222656c58.929687,22.304688 102.074219,76.859375 108.011719,142.203125c7.425781,-10.15625 21.007812,-20.007813 44.390624,-32.378906l0.15625,-0.058594c-19.632812,-66.480469 -79.0625,-115.808594 -150.621093,-120.242187zm0,0"/>
  <path id="svg_10" fill="#09a66d" d="m217.824219,512c-11.902344,0 -23.890625,-0.976562 -35.871094,-2.957031c-57.269531,-9.457031 -107.429687,-40.648438 -141.238281,-87.828125c-33.808594,-47.179688 -47.21875,-104.703125 -37.757813,-161.96875c0.683594,-4.148438 4.613281,-6.953125 8.75,-6.269532c4.148438,0.683594 6.957031,4.601563 6.269531,8.75c-8.792968,53.253907 3.675782,106.746094 35.117188,150.621094s78.082031,72.878906 131.34375,81.675782c109.949219,18.164062 214.152344,-56.511719 232.3125,-166.445313c8.792969,-53.253906 -3.675781,-106.746094 -35.117188,-150.621094c-31.4375,-43.875 -78.082031,-72.878906 -131.339843,-81.675781c-4.148438,-0.683594 -6.957031,-4.601562 -6.273438,-8.75c0.6875,-4.148438 4.613281,-6.953125 8.75,-6.269531c57.273438,9.457031 107.433594,40.648437 141.238281,87.828125c33.808594,47.179687 47.21875,104.703125 37.761719,161.96875s-40.652343,107.421875 -87.835937,141.226562c-37.316406,26.734375 -81.097656,40.714844 -126.109375,40.714844zm0,0"/>
  <path id="svg_11" fill="#49cb5c" d="m171.605469,183.886719c-81.265625,-13.789063 -131.679688,-116.109375 -131.679688,-116.109375s81.347657,-79.964844 162.613281,-66.179688c81.265626,13.785156 131.679688,116.105469 131.679688,116.105469s-81.347656,79.96875 -162.613281,66.183594zm0,0"/>
  <path id="svg_12" fill="#07b128" d="m202.539062,1.597656c-15.519531,-2.632812 -31.035156,-1.839844 -45.992187,1.15625c77.871094,17.484375 125.90625,114.949219 125.90625,114.949219s-53.25,52.339844 -116.625,65.027344c1.910156,0.429687 3.832031,0.824219 5.777344,1.15625c81.265625,13.785156 162.613281,-66.183594 162.613281,-66.183594s-50.414062,-102.320313 -131.679688,-116.105469zm0,0"/>
  <path id="svg_13" fill="#09a66d" d="m329.625,109.207031l-79.472656,-13.40625l-74.234375,-95.585937c-5.921875,0.347656 -11.789063,1.105468 -17.578125,2.191406l69.625,89.648438l-59.925782,-10.109376l-51.132812,-66.15625c-4.796875,2.164063 -9.460938,4.460938 -13.957031,6.84375l42.957031,55.578126l-99.089844,-16.71875c-4.449218,3.886718 -6.890625,6.285156 -6.890625,6.285156s1.632813,3.308594 4.765625,8.796875l98.550782,16.625l-54.65625,42.261719c3.519531,3.625 7.210937,7.207031 11.070312,10.683593l64.015625,-49.496093l63.441406,10.703124l-86.28125,66.753907c5.355469,2.5 10.890625,4.664062 16.597657,6.40625l90.113281,-69.710938l79.523437,13.414063c4.609375,-4.019532 7.152344,-6.511719 7.152344,-6.511719s-1.574219,-3.1875 -4.59375,-8.496094zm0,0"/>
  <path id="svg_14" fill="#49cb5c" d="m389.492188,84.566406c21.800781,-51.585937 97.335937,-68.953125 97.335937,-68.953125s40.191406,66.269531 18.390625,117.855469c-21.796875,51.585938 -97.335938,68.953125 -97.335938,68.953125s-40.191406,-66.269531 -18.390624,-117.855469zm0,0"/>
  <path id="svg_15" fill="#07b128" d="m486.828125,15.613281s-17.175781,3.953125 -37.511719,13.679688c10.433594,22.101562 26.972656,66.957031 11.242188,104.175781c-11.402344,26.984375 -37.511719,44.605469 -59.820313,55.273438c4.027344,8.53125 7.148438,13.679687 7.148438,13.679687s75.535156,-17.367187 97.335937,-68.953125c21.796875,-51.585938 -18.394531,-117.855469 -18.394531,-117.855469zm0,0"/>
  <path id="svg_16" fill="#09a66d" d="m511.394531,90.921875l-58.085937,24.367187l38.136718,-91.175781c-2.730468,-5.390625 -4.617187,-8.5 -4.617187,-8.5s-3.59375,0.828125 -9.441406,2.65625l-39.414063,94.226563l-24.441406,-60.136719c-4.140625,3.652344 -8.046875,7.621094 -11.589844,11.921875l27.695313,68.144531l-26.015625,62.195313c2.539062,4.957031 4.261718,7.800781 4.261718,7.800781s3.90625,-0.898437 10.1875,-2.890625l26.863282,-64.21875l66.4375,-27.867188c0.441406,-5.519531 0.417968,-11.054687 0.023437,-16.523437zm0,0"/>
  <text font-weight="bold" xml:space="preserve" text-anchor="start" font-family="Arvo, sans-serif" font-size="57" id="svg_17" y="310.850011" x="188.5" stroke-opacity="null" stroke-width="0" stroke="null" fill="#0000bf">10</text>
  <path id="svg_18" d="m22.392501,161.04529l17.570563,0l5.429439,-19.862283l5.429442,19.862283l17.570559,0l-14.214858,12.275426l5.42972,19.862283l-14.214864,-12.27576l-14.214861,12.27576l5.429722,-19.862283l-14.214862,-12.275426z" stroke-opacity="null" stroke-width="null" stroke="null" fill="#ffff00"/>
  <path stroke="null" id="svg_19" d="m424.392509,416.830533l27.119774,0l8.380219,-28.64753l8.380225,28.64753l27.119769,0l-21.940319,17.704943l8.380653,28.647529l-21.940328,-17.705426l-21.940322,17.705426l8.380654,-28.647529l-21.940325,-17.704943z" stroke-opacity="null" stroke-width="null" fill="#ffff00"/>
  <path stroke="null" id="svg_20" d="m311.392512,36.796101l35.141113,0l10.858875,-33.6131l10.858883,33.6131l35.141107,0l-28.429707,20.773798l10.859437,33.613098l-28.429719,-20.774365l-28.429711,20.774365l10.859439,-33.613098l-28.429715,-20.773798z" stroke-opacity="null" stroke-width="null" fill="#ffff00"/>
  <path id="svg_21" d="m50.392501,420.04529l17.570562,0l5.429439,-19.862284l5.429443,19.862284l17.570559,0l-14.214858,12.275425l5.42972,19.862283l-14.214864,-12.27576l-14.21486,12.27576l5.429721,-19.862283l-14.214862,-12.275425z" stroke-opacity="null" stroke-width="null" stroke="null" fill="#ffff00"/>
 </g>
</svg>