<svg width="512.099" height="512.099" xmlns="http://www.w3.org/2000/svg">

 <g>
  <title>background</title>
  <rect fill="none" id="canvas_background" height="402" width="582" y="-1" x="-1"/>
 </g>
 <g>
  <title>Layer 1</title>
  <ellipse stroke="null" ry="84.999999" rx="99.499997" id="svg_15" cy="191.549498" cx="267.549503" stroke-width="NaN" fill="#00ff00"/>
  <ellipse stroke="null" ry="53.000003" rx="161.5" id="svg_17" cy="230.099501" cx="265.049514" fill-opacity="null" stroke-opacity="null" stroke-width="NaN" fill="#00ff00"/>
  <path stroke="null" id="svg_1" d="m373.324525,181.044628c1.888933,-48.798632 -46.993702,-89.332634 -107.774531,-89.332634c-60.755461,0 -109.667366,40.514143 -107.774531,89.332112c-32.890453,2.309957 -58.775464,24.557668 -58.775464,51.572671c0,28.546264 28.905091,51.77022 64.434456,51.77022l204.230426,0c35.529365,0 64.435106,-23.223955 64.435106,-51.77022c-0.00065,-27.015003 -25.886312,-49.262714 -58.775464,-51.572149zm-5.659643,86.618696l-204.230426,0c-24.052018,0 -43.619772,-15.72182 -43.619772,-35.046547s19.567754,-35.046547 43.619772,-35.046547l5.633624,0c6.317907,0 11.176184,-4.490829 10.308472,-9.512112c-7.316361,-42.323435 33.726943,-79.622452 86.172791,-79.622452c59.503978,0 101.926255,47.336879 82.206293,92.889028c-2.354661,5.439897 2.6929,11.111313 9.830385,11.111313c4.306038,0 8.33433,-2.16467 9.829084,-5.617064c1.301568,-3.007125 2.387835,-6.062331 3.264653,-9.155688c22.649628,1.250095 40.604245,16.444074 40.604245,34.953522c0.00065,19.324727 -19.567104,35.046547 -43.619122,35.046547z"/>
  <path stroke="null" id="svg_2" d="m269.967999,202.594997c-12.642288,0 -22.926999,10.509644 -22.926999,23.427238s10.285233,23.427771 22.926999,23.427771s22.926999,-10.509644 22.926999,-23.427771s-10.285233,-23.427238 -22.926999,-23.427238zm0,29.788703c-3.432761,0 -6.225108,-2.853806 -6.225108,-6.361465s2.792869,-6.360932 6.225108,-6.360932s6.225108,2.853806 6.225108,6.360932c0,3.508192 -2.792869,6.361465 -6.225108,6.361465z"/>
  <path stroke="null" id="svg_3" d="m230.540856,219.025542c6.329417,0 11.461144,-3.902262 11.461144,-8.71527s-5.131727,-8.71527 -11.461144,-8.71527c-17.35074,0 -31.465856,10.733945 -31.465856,23.92723s14.115832,23.927775 31.465856,23.927775c6.329417,0 11.461144,-3.902262 11.461144,-8.71527s-5.131727,-8.71527 -11.461144,-8.71527c-4.711247,0 -8.543567,-2.914713 -8.543567,-6.497234c0,-3.581976 3.83232,-6.496689 8.543567,-6.496689z"/>
  <path stroke="null" id="svg_4" d="m318.404548,245.750423c1.699891,-2.45754 3.031619,-5.021687 3.54488,-7.456963c2.148109,-10.19879 -5.788886,-19.787048 -21.026617,-16.292547c-3.595747,0.825031 -5.859767,4.486509 -5.056311,8.17924s4.371685,6.017547 7.965348,5.192088c2.784786,-0.639217 4.435895,-0.360068 5.105094,-0.121164c-0.389845,2.375764 -7.384124,9.714132 -10.216442,11.620224c-5.518705,3.714139 -2.957819,12.579692 3.657039,12.579692l15.975309,0c3.684557,0 6.671145,-3.067215 6.671145,-6.850285c0,-3.765944 -2.95907,-6.822028 -6.619444,-6.850285z"/>
  <path transform="rotate(180 197.34423828125,368.53326416015625) " id="svg_5" d="m176.844244,368.402461l20.499998,-54.369201l20.499998,54.369201l-10.25,0l0,54.630815l-20.499997,0l0,-54.630815l-10.25,0z" fill-opacity="null" stroke-opacity="null" stroke-width="null" stroke="null" fill="null"/>
  <path transform="rotate(180 315.34423828125,357.53326416015625) " id="svg_6" d="m294.84424,357.40246l20.5,-54.3692l20.5,54.3692l-10.25,0l0,54.63082l-20.5,0l0,-54.63082l-10.25,0z" fill-opacity="null" stroke-opacity="null" stroke-width="null" stroke="null" fill="null"/>
  <path stroke="null" transform="rotate(180 258.34423828125,329.53326416015625) " id="svg_7" d="m243.84424,329.448067l14.5,-35.414805l14.5,35.414805l-7.25,0l0,35.585219l-14.5,0l0,-35.585219l-7.25,0z" fill-opacity="null" stroke-opacity="null" stroke-width="null" fill="null"/>
  <path id="svg_11" d="m190.5495,225.8995" opacity="0.5" stroke-width="null" stroke="null" fill="#00ff00"/>
  <path id="svg_12" d="m262.5495,169.8995" opacity="0.5" stroke-width="null" stroke="null" fill="#00ff00"/>
  <path id="svg_13" d="m-193.4505,257.8995" opacity="0.5" stroke-width="null" stroke="null" fill="#00ff00"/>
  <path id="svg_18" d="m67.216755,107.425848l28.647656,0l8.852346,-27.883593l8.852351,27.883593l28.647651,0l-23.176398,17.232811l8.852804,27.883593l-23.176408,-17.23328l-23.176403,17.23328l8.852807,-27.883593l-23.176406,-17.232811z" stroke-opacity="null" stroke-width="null" stroke="null" fill="#ffff00"/>
  <path id="svg_19" d="m360.536759,332.815166l34.759145,0l10.740843,-35.522945l10.740849,35.522945l34.759139,0l-28.120687,21.954136l10.741399,35.522945l-28.1207,-21.954734l-28.120694,21.954734l10.741402,-35.522945l-28.120697,-21.954136z" stroke-opacity="null" stroke-width="null" stroke="null" fill="#ffff00"/>
  <path stroke="null" id="svg_20" d="m383.536765,117.356155l21.008268,0l6.491717,-24.063933l6.49172,24.063933l21.008265,0l-16.996016,14.872157l6.492053,24.063933l-16.996023,-14.872563l-16.996019,14.872563l6.492054,-24.063933l-16.996021,-14.872157z" stroke-opacity="null" stroke-width="null" fill="#ffff00"/>
  <path stroke="null" id="svg_21" d="m141.536765,303.952882l15.278738,0l4.721248,-15.660655l4.721251,15.660655l15.278736,0l-12.360737,9.678706l4.721492,15.660655l-12.360742,-9.67897l-12.360739,9.67897l4.721493,-15.660655l-12.36074,-9.678706z" stroke-opacity="null" stroke-width="null" fill="#ffff00"/>
  <text font-weight="bold" xml:space="preserve" text-anchor="start" font-family="Arvo, sans-serif" font-size="35" id="svg_22" y="166.8995" x="239.5495" stroke-opacity="null" stroke-width="0" stroke="null" fill="#006000">10</text>
 </g>
</svg>