<?xml version="1.0" encoding="UTF-8"?> <svg xmlns="http://www.w3.org/2000/svg" xmlns:xlink="http://www.w3.org/1999/xlink" width="64px" height="64px" viewBox="0 0 64 64"><!-- Generator: Sketch 52.6 (67491) - http://www.bohemiancoding.com/sketch --><title>Dona</title><desc>Created with Sketch.</desc><defs><filter x="-24.1%" y="-24.1%" width="148.1%" height="148.1%" id="filter-1"><feOffset dx="0" dy="2" in="SourceAlpha" result="shadowOffsetOuter1"></feOffset><feGaussianBlur stdDeviation="2" in="shadowOffsetOuter1" result="shadowBlurOuter1"></feGaussianBlur><feColorMatrix values="0 0 0 0 0 0 0 0 0 0 0 0 0 0 0 0 0 0 0.5 0" type="matrix" in="shadowBlurOuter1" result="shadowMatrixOuter1"></feColorMatrix><feMerge><feMergeNode in="shadowMatrixOuter1"></feMergeNode><feMergeNode in="SourceGraphic"></feMergeNode></feMerge></filter></defs><g id="Page-1" stroke="none" stroke-width="1" fill="none" fill-rule="evenodd"><g id="Icons" transform="translate(-566.000000, -322.000000)"><g id="BoxSmallDef" transform="translate(571.000000, 325.000000)"><g id="BoxSmall" fill="#EC6B69" fill-rule="evenodd" stroke="#FFFFFF" stroke-width="1"><g id="Group-1791" filter="url(#filter-1)"><path d="M7.6445,53.3662 L46.6905,53.3662 C50.5565,53.3662 53.6905,50.2322 53.6905,46.3662 L53.6905,7.3202 C53.6905,3.4542 50.5565,0.3202 46.6905,0.3202 L7.6445,0.3202 C3.7785,0.3202 0.6445,3.4542 0.6445,7.3202 L0.6445,46.3662 C0.6445,50.2322 3.7785,53.3662 7.6445,53.3662" id="Fill-1787" stroke-width="2"></path></g></g><path d="M32.5,11 C26.7105625,11 22,15.7564314 22,21.6022434 C22,23.0759552 22.3013828,24.4778528 22.8408203,25.7540978 L27.7498774,27.9154446 C26.9216899,27.27931 26.2164062,26.4912029 25.6914062,25.5780847 L27.6063227,25.5780847 C27.7769477,26.5018051 28.0185921,27.3674412 28.3112796,28.1639347 L32.1898195,29.8723034 C32.212132,29.8829056 32.2341571,29.892763 32.2564696,29.9033653 C33.2644696,30.3155275 34.0559071,31.073629 34.5533446,32 C39.3636571,31.0325453 43,26.7390303 43,21.6022434 C43,15.7564314 38.2894375,11 32.5,11 Z M32.4985424,14 C33.2254929,14 34.3596268,15.4733333 35,18 L30,18 C30.6388805,15.4733333 31.7715918,14 32.4985424,14 Z M28,15 C27.6347049,15.9121784 27.3472543,16.923658 27.1404005,18 L25,18 C25.7305902,16.7737695 26.763278,15.7437323 28,15 Z M36,15 C37.2370076,15.7437323 38.2701069,16.7737695 39,18 L36.8616418,18 C36.6549853,16.923658 36.3664122,15.9121784 36,15 Z M24.1325652,20 L27,20 C26.9704899,20.498 26.9510088,20.999 26.9510088,21.5 C26.9510088,22.001 26.9704899,22.502 27,23 L24.1325652,23 C24.0514125,22.511 24,22.0115 24,21.5 C24,20.9885 24.0514125,20.489 24.1325652,20 Z M30.0644535,20 L35.9355465,20 C35.9670465,20.486 36,20.9735 36,21.5 C36,22.0265 35.9670465,22.514 35.9355465,23 L30.0644535,23 C30.0329535,22.514 30,22.0265 30,21.5 C30,20.9735 30.0329535,20.486 30.0644535,20 Z M37,20 L39.8674348,20 C39.9485875,20.489 40,20.9885 40,21.5 C40,22.0115 39.9485875,22.511 39.8674348,23 L37.0028817,23 C37.0309162,22.502 37.0489912,22.001 37.0489912,21.5 C37.0489912,20.999 37.0295101,20.498 37,20 Z M30,25 L35,25 C34.3611195,27.5266667 33.2284082,29 32.5014576,29 C31.7745071,29 30.6403732,27.5266667 30,25 Z M36.8616418,25 L39,25 C38.2686412,26.2262308 37.2370076,27.2562675 36,28 C36.3664122,27.0878213 36.6549853,26.0763423 36.8616418,25 Z M17.8461538,26 C17.3474309,26.0002673 16.8533317,26.0974895 16.3903246,26.2864587 L10,28.6666667 L10,39.3333333 L15.519381,36.8880213 C16.1706117,36.6000213 16.9074352,36.5899173 17.5652043,36.864584 L29.4187195,41.8020827 C29.6876131,41.9315529 29.9764755,41.9991786 30.2692308,42 C30.6079194,41.9987805 30.9405279,41.9081661 31.2346752,41.7369787 C31.2348478,41.7369213 31.2422284,41.7370347 31.2423382,41.7369787 L42.9936902,35.0807293 C43.6127504,34.7259816 43.9987605,34.0583915 44,33.3333333 C44,32.2287638 43.1217893,31.3333333 42.0384615,31.3333333 C41.7504064,31.3344542 41.4661286,31.4002486 41.205829,31.5260413 L41.205829,31.5234373 L32.2307692,35.3333333 L30.2692308,35.3333333 C31.3525585,35.3333333 32.2307692,34.4379028 32.2307692,33.3333333 C32.2305572,32.4677462 31.684252,31.700534 30.8771037,31.432292 L19.5088642,26.375 L19.4935396,26.375 C18.9776025,26.1296036 18.415464,26.0016421 17.8461538,26 Z" id="Shape" fill="#FFFFFF" fill-rule="nonzero"></path></g></g></g></svg> 