<?xml version="1.0" encoding="UTF-8"?> <svg xmlns="http://www.w3.org/2000/svg" xmlns:xlink="http://www.w3.org/1999/xlink" width="119px" height="119px" viewBox="0 0 119 119"><!-- Generator: Sketch 52.6 (67491) - http://www.bohemiancoding.com/sketch --><title>Group</title><desc>Created with Sketch.</desc><defs><filter x="-13.1%" y="-13.1%" width="126.2%" height="126.2%" id="filter-1"><feOffset dx="0" dy="2" in="SourceAlpha" result="shadowOffsetOuter1"></feOffset><feGaussianBlur stdDeviation="2" in="shadowOffsetOuter1" result="shadowBlurOuter1"></feGaussianBlur><feColorMatrix values="0 0 0 0 0 0 0 0 0 0 0 0 0 0 0 0 0 0 0.5 0" type="matrix" in="shadowBlurOuter1" result="shadowMatrixOuter1"></feColorMatrix><feMerge><feMergeNode in="shadowMatrixOuter1"></feMergeNode><feMergeNode in="SourceGraphic"></feMergeNode></feMerge></filter></defs><g id="Page-1" stroke="none" stroke-width="1" fill="none" fill-rule="evenodd"><g id="Icons" transform="translate(-433.000000, -125.000000)"><g id="Group" filter="url(#filter-1)" transform="translate(439.000000, 129.000000)"><path d="M99.3388,106.1318 C103.2048,106.1318 106.3388,102.9978 106.3388,99.1318 L106.3388,7.4648 C106.3388,3.5988 103.2048,0.4648 99.3388,0.4648 L7.6718,0.4648 C3.8058,0.4648 0.6718,3.5988 0.6718,7.4648 L0.6718,99.1318 C0.6718,102.9978 3.8058,106.1318 7.6718,106.1318 L99.3388,106.1318 Z" id="Fill-1743" stroke="#FFFFFF" stroke-width="4" fill="#EC6B69"></path><path d="M81.2426,78.749 L92.1126,59.593 C93.2786,56.381 91.7126,52.675 89.4476,49.235 L83.5866,39.856 L68.0316,49.577 L79.0186,67.436 C80.9106,70.093 82.5876,74.07 81.2426,78.749 Z M63.3456,90.778 L63.9936,84.615 L73.8956,83.847 C78.5566,83.645 79.8186,78.201 79.6526,75.339 C79.4896,72.52 77.5896,69.176 75.6466,66.157 L63.2616,66.275 L62.9136,60.734 L54.0886,76.241 L63.3456,90.778 Z M62.3886,16.04 L40.3646,15.818 C36.9906,16.357 34.5076,19.523 32.5966,23.172 L27.2356,32.844 L43.2786,41.737 L53.5726,23.468 C54.9796,20.526 57.6436,17.132 62.3886,16.04 Z M81.5866,25.86 L75.8816,28.281 L70.4096,19.994 C67.9726,16.015 62.5996,17.551 60.1766,19.083 C57.7906,20.592 55.7866,23.874 54.0886,27.039 L60.1966,37.813 L55.5186,40.804 L73.3586,41.005 L81.5866,25.86 Z M15.6246,61.556 L26.1086,80.925 C28.2156,83.615 32.1886,84.251 36.3056,84.153 L47.3646,84.153 L47.3646,65.811 L26.3966,65.664 C23.1416,65.859 18.8796,65.175 15.6246,61.556 Z M14.9066,40.003 L19.7896,43.819 L15.1946,52.623 C12.8966,56.683 16.8436,60.638 19.3586,62.015 C21.8346,63.369 25.6776,63.531 29.2686,63.482 L35.7316,52.916 L40.6146,55.558 L32.1406,39.856 L14.9066,40.003 Z" id="Fill-1747" fill="#FFFFFF"></path></g></g></g></svg> 