<?xml version="1.0" encoding="UTF-8"?> <svg xmlns="http://www.w3.org/2000/svg" xmlns:xlink="http://www.w3.org/1999/xlink" width="119px" height="119px" viewBox="0 0 119 119"><!-- Generator: Sketch 52.6 (67491) - http://www.bohemiancoding.com/sketch --><title>SecondIcon</title><desc>Created with Sketch.</desc><defs><filter x="-13.1%" y="-13.1%" width="126.2%" height="126.2%" id="filter-1"><feOffset dx="0" dy="2" in="SourceAlpha" result="shadowOffsetOuter1"></feOffset><feGaussianBlur stdDeviation="2" in="shadowOffsetOuter1" result="shadowBlurOuter1"></feGaussianBlur><feColorMatrix values="0 0 0 0 0 0 0 0 0 0 0 0 0 0 0 0 0 0 0.5 0" type="matrix" in="shadowBlurOuter1" result="shadowMatrixOuter1"></feColorMatrix><feMerge><feMergeNode in="shadowMatrixOuter1"></feMergeNode><feMergeNode in="SourceGraphic"></feMergeNode></feMerge></filter></defs><g id="Page-1" stroke="none" stroke-width="1" fill="none" fill-rule="evenodd"><g id="Mobile" transform="translate(-782.000000, -448.000000)"><g id="SecondIcon" filter="url(#filter-1)" transform="translate(788.000000, 452.000000)"><path d="M7.6666,106.1318 L99.3336,106.1318 C103.1996,106.1318 106.3336,102.9978 106.3336,99.1318 L106.3336,7.4648 C106.3336,3.5988 103.1996,0.4648 99.3336,0.4648 L7.6666,0.4648 C3.8006,0.4648 0.6666,3.5988 0.6666,7.4648 L0.6666,99.1318 C0.6666,102.9978 3.8006,106.1318 7.6666,106.1318" id="Fill-1750" fill="#2DAB66"></path><path d="M7.6666,106.1318 L99.3336,106.1318 C103.1996,106.1318 106.3336,102.9978 106.3336,99.1318 L106.3336,7.4648 C106.3336,3.5988 103.1996,0.4648 99.3336,0.4648 L7.6666,0.4648 C3.8006,0.4648 0.6666,3.5988 0.6666,7.4648 L0.6666,99.1318 C0.6666,102.9978 3.8006,106.1318 7.6666,106.1318 Z" id="Stroke-1752" stroke="#FFFFFF" stroke-width="4.009"></path><path d="M73.3693,84.6899 C72.9503,83.9689 72.0283,83.7239 71.3063,84.1419 L71.2483,84.1749 C70.5283,84.5929 70.2823,85.5169 70.7003,86.2379 C70.9803,86.7199 71.4863,86.9889 72.0063,86.9889 C72.2643,86.9889 72.5243,86.9239 72.7633,86.7849 L72.8213,86.7519 C73.5413,86.3339 73.7873,85.4099 73.3693,84.6899" id="Fill-1759" fill="#FFFFFF"></path><path d="M43.101,41.5127 C43.774,41.1337 45.336,41.0787 46.476,41.0377 C46.934,41.0217 47.366,41.0067 47.751,40.9737 C47.955,40.9567 48.181,40.9607 48.394,40.9767 C48.299,41.2217 48.268,41.4897 48.309,41.7557 C48.382,42.2247 48.671,42.6317 49.089,42.8547 C49.372,43.0067 49.766,43.2687 50.183,43.5467 C51.362,44.3327 52.699,45.2237 53.955,45.3047 C55.097,45.3777 55.732,44.7277 56.005,44.4507 C56.026,44.4287 56.047,44.4067 56.068,44.3867 C56.222,44.2617 56.366,44.0937 56.473,43.8907 C56.714,43.9607 56.967,44.0287 57.227,44.0997 C58.12,44.3417 59.783,44.7917 60.151,45.1817 C60.804,45.8727 61.312,47.1897 61.762,48.3517 C61.988,48.9397 62.202,49.4937 62.442,50.0077 C62.546,50.2277 62.647,50.4547 62.751,50.6837 C63.447,52.2377 64.237,53.9977 65.911,55.0927 C66.67,55.5887 67.601,55.7317 68.422,55.8577 C68.521,55.8717 68.635,55.8897 68.751,55.9087 C68.263,56.5897 67.569,57.2357 66.836,57.9187 C64.968,59.6577 62.643,61.8237 63.714,65.2777 C64.219,66.9087 64.243,67.0847 63.43,67.9687 C63.319,68.0897 63.216,68.1997 63.119,68.3017 C62.423,69.0427 61.874,69.6277 61.418,71.0617 C61.286,71.4777 61.115,71.6707 60.804,72.0207 C60.555,72.3017 60.245,72.6497 59.959,73.1387 C59.617,73.7247 59.504,74.2887 59.413,74.7417 C59.324,75.1877 59.273,75.4107 59.098,75.6267 C58.699,76.1157 57.957,76.8257 57.193,77.3107 C56.484,77.7617 56.07,77.8227 55.929,77.8147 C55.767,77.6417 55.184,76.8857 54.303,74.2697 C54.086,73.6257 53.785,72.9617 53.493,72.3187 C52.85,70.9037 52.186,69.4397 52.509,68.4397 C52.547,68.3217 52.585,68.2057 52.622,68.0927 C53.138,66.5187 53.625,65.0327 52.723,62.8687 C52.448,62.2097 52.01,61.7287 51.624,61.3037 C51.374,61.0287 51.091,60.7177 51.048,60.5377 C50.995,60.3197 50.996,60.0667 50.998,59.7747 C51.004,58.9867 51.011,57.7947 49.827,56.6857 C48.157,55.1217 46.21,55.6037 44.921,55.9227 C44.525,56.0207 44.151,56.1137 43.819,56.1527 C41.699,56.4007 39.807,55.6007 38.625,53.9567 C37.39,52.2367 37.21,49.9227 38.157,47.9167 C38.616,46.9467 39.308,46.1667 40.111,45.2637 C40.286,45.0667 40.463,44.8667 40.64,44.6637 C40.934,44.3247 41.258,43.8657 41.601,43.3787 C42.009,42.7987 42.77,41.7187 43.101,41.5127 Z M30.797,33.2667 L29.022,35.1687 C28.943,35.2537 28.874,35.3477 28.816,35.4487 L24.785,42.4857 L21.203,45.0477 C20.535,45.5247 20.371,46.4477 20.833,47.1247 L22.173,49.0907 C21.401,49.2057 20.707,49.3007 20.247,49.3507 C20.158,49.2657 20.066,49.1797 19.97,49.0907 C19.611,48.7577 19.113,48.3117 18.369,47.6627 C19.595,40.0767 23.25,32.9307 28.998,27.4767 C30.099,27.8237 31.003,28.6447 31.443,29.7157 C31.94,30.9197 31.686,32.3137 30.797,33.2667 Z M22.003,57.3347 L28.225,62.0657 C28.41,62.2057 28.623,62.3017 28.85,62.3457 L32.599,63.0777 C33.078,63.1717 33.478,63.4557 33.725,63.8757 C33.971,64.2957 34.023,64.7837 33.871,65.2467 C33.559,66.1997 33.557,67.2067 33.868,68.1597 L34.345,69.6307 C34.631,70.5097 34.148,71.4577 33.268,71.7437 L31.769,72.2307 C31.246,72.4007 30.857,72.8417 30.754,73.3827 L29.547,79.6817 C26.893,77.2537 24.563,74.3837 22.673,71.1087 C20.366,67.1127 18.924,62.8507 18.288,58.5417 L22.003,57.3347 Z M86.955,33.9947 C81.797,25.0607 73.468,18.6697 63.503,15.9987 C53.538,13.3287 43.13,14.6997 34.195,19.8577 C25.261,25.0147 18.87,33.3447 16.201,43.3087 C13.53,53.2747 14.901,63.6817 20.059,72.6167 C24.686,80.6317 32.04,86.7217 40.766,89.7667 C44.903,91.2097 49.22,91.9297 53.533,91.9297 C58.22,91.9297 62.9,91.0777 67.323,89.3787 C68.101,89.0787 68.489,88.2067 68.19,87.4287 C67.891,86.6507 67.018,86.2627 66.24,86.5617 C54.466,91.0867 41.721,89.0307 32.198,81.8837 L33.55,74.8257 L34.201,74.6147 C36.663,73.8147 38.015,71.1607 37.216,68.6987 L36.738,67.2277 C36.627,66.8877 36.628,66.5277 36.739,66.1877 C37.158,64.9087 37.009,63.5097 36.328,62.3487 C35.647,61.1887 34.5,60.3747 33.179,60.1167 L29.773,59.4507 L23.201,54.4547 C22.807,54.1547 22.292,54.0677 21.821,54.2207 L17.974,55.4697 C17.893,54.0947 17.891,52.7187 17.969,51.3507 C18.12,51.4917 18.22,51.5877 18.28,51.6507 C18.355,51.7757 18.449,51.8907 18.558,51.9907 C18.872,52.2767 19.157,52.4067 19.755,52.4067 C20.304,52.4067 21.116,52.2977 22.459,52.0987 C23.732,51.9097 24.998,51.6987 25.011,51.6967 C25.518,51.6107 25.947,51.2737 26.149,50.8007 C26.351,50.3267 26.298,49.7837 26.008,49.3587 L24.158,46.6447 L26.808,44.7497 C26.985,44.6227 27.132,44.4597 27.24,44.2717 L31.348,37.1007 L33.004,35.3257 C34.696,33.5117 35.179,30.8587 34.234,28.5657 C33.677,27.2127 32.703,26.0867 31.485,25.3277 C32.804,24.2907 34.21,23.3337 35.704,22.4707 C41.188,19.3047 47.173,17.7707 53.094,17.7117 L50.399,21.0927 L40.407,24.5957 C40.002,24.7377 39.675,25.0467 39.512,25.4437 L36.721,32.2087 C36.523,32.6887 36.586,33.2377 36.888,33.6607 L40.963,39.3697 C40.38,39.9017 39.812,40.6777 39.133,41.6407 C38.835,42.0627 38.554,42.4627 38.36,42.6857 C38.191,42.8807 38.023,43.0707 37.855,43.2587 C36.978,44.2447 36.072,45.2657 35.428,46.6277 C34.012,49.6247 34.298,53.1077 36.174,55.7187 C37.988,58.2417 40.979,59.5247 44.171,59.1497 C44.691,59.0887 45.176,58.9687 45.645,58.8517 C46.939,58.5327 47.349,58.4997 47.764,58.8887 C47.966,59.0777 47.984,59.1137 47.98,59.7547 C47.977,60.1627 47.974,60.6707 48.114,61.2497 C48.34,62.1777 48.922,62.8187 49.39,63.3327 C49.623,63.5897 49.863,63.8537 49.937,64.0317 C50.408,65.1587 50.203,65.7837 49.754,67.1527 C49.716,67.2697 49.676,67.3887 49.637,67.5117 C48.954,69.6237 49.906,71.7187 50.744,73.5667 C51.017,74.1667 51.274,74.7337 51.443,75.2337 C52.8,79.2597 53.817,80.1817 54.633,80.5537 C55.061,80.7477 55.503,80.8327 55.95,80.8327 C58.125,80.8327 60.395,78.8127 61.438,77.5327 C62.093,76.7277 62.255,75.9237 62.372,75.3357 C62.431,75.0427 62.477,74.8117 62.565,74.6607 C62.7,74.4297 62.859,74.2507 63.06,74.0247 C63.465,73.5687 63.969,73.0017 64.294,71.9747 C64.542,71.1937 64.722,71.0027 65.318,70.3677 C65.422,70.2577 65.533,70.1387 65.652,70.0107 C67.662,67.8237 67.144,66.1517 66.595,64.3837 C66.134,62.8957 66.941,61.9437 68.892,60.1257 C69.738,59.3387 70.612,58.5247 71.288,57.5457 C71.584,57.1177 72.484,55.8147 71.927,54.5237 C71.381,53.2577 69.994,53.0447 68.879,52.8737 C68.439,52.8057 67.774,52.7047 67.562,52.5657 C66.628,51.9547 66.057,50.6807 65.505,49.4497 C65.395,49.2037 65.286,48.9617 65.176,48.7267 C64.98,48.3077 64.784,47.8007 64.576,47.2637 C64.027,45.8437 63.405,44.2327 62.346,43.1097 C61.394,42.1007 59.599,41.6157 58.015,41.1857 C57.483,41.0417 56.981,40.9057 56.649,40.7837 C56.372,40.6807 56.07,40.6617 55.782,40.7297 C55.011,40.9107 54.531,41.1097 54.174,41.3957 C54.079,41.4717 53.8,41.7187 53.636,42.1177 C53.084,41.8527 52.324,41.3467 51.857,41.0347 C51.847,41.0287 51.837,41.0227 51.828,41.0157 C51.985,40.3857 51.842,39.8787 51.693,39.5637 C50.85,37.7807 48.052,37.9197 47.5,37.9667 C47.186,37.9927 46.79,38.0067 46.37,38.0217 C45.711,38.0447 44.982,38.0717 44.261,38.1527 L44.298,38.0487 C44.846,36.5237 46.302,35.4997 47.921,35.4997 L48.779,35.4997 C49.612,35.4997 50.288,34.8247 50.288,33.9907 C50.288,33.1577 49.612,32.4817 48.779,32.4817 L47.921,32.4817 C45.516,32.4817 43.315,33.7477 42.08,35.7407 L39.829,32.5877 L42.044,27.2197 L51.808,23.7957 C52.076,23.7017 52.312,23.5347 52.488,23.3127 L56.829,17.8677 C67.919,18.9227 78.36,25.1407 84.342,35.5027 C85.935,38.2627 87.114,41.1687 87.898,44.1397 L87.258,44.7107 C86.423,45.4557 85.934,46.5247 85.915,47.6427 C85.915,47.6557 85.915,47.6667 85.914,47.6797 L84.872,44.8127 C84.717,44.3857 84.487,43.9927 84.192,43.6477 L82.334,41.4707 C81.612,40.6267 80.563,40.1437 79.454,40.1437 L77.179,40.1437 C76.37,40.1437 75.632,40.5857 75.251,41.2977 C74.87,42.0097 74.912,42.8697 75.36,43.5407 L75.59,43.8877 C74.12,45.1517 72.419,46.1637 70.608,46.8457 L67.489,40.8707 L67.489,39.5377 C67.489,39.1257 67.32,38.7307 67.022,38.4467 L64.213,35.7647 C64.058,35.6167 63.873,35.5047 63.672,35.4327 L61.143,34.5447 C60.356,34.2677 59.495,34.6817 59.219,35.4677 C58.942,36.2547 59.356,37.1157 60.142,37.3917 L62.364,38.1727 L64.471,40.1837 L64.471,41.2417 C64.471,41.4847 64.53,41.7237 64.643,41.9397 L68.547,49.4197 C68.899,50.0927 69.696,50.4007 70.407,50.1377 L71.544,49.7187 C74.186,48.7437 76.634,47.1767 78.625,45.1857 C79.133,44.6777 79.212,43.8807 78.814,43.2817 L78.733,43.1617 L79.454,43.1617 C79.68,43.1617 79.893,43.2597 80.039,43.4307 L81.898,45.6077 C81.958,45.6777 82.004,45.7577 82.036,45.8447 L84.087,51.4857 C84.264,51.9707 84.675,52.3307 85.179,52.4437 C85.287,52.4677 85.397,52.4787 85.505,52.4787 C85.901,52.4787 86.286,52.3227 86.572,52.0367 L87.549,51.0597 C88.167,50.4417 88.593,49.6587 88.796,48.7907 C90.306,60.8947 85.56,73.4147 75.53,81.2887 C74.874,81.8037 74.759,82.7517 75.274,83.4077 C75.788,84.0637 76.737,84.1777 77.392,83.6627 C84.635,77.9787 89.61,69.8477 91.402,60.7697 C93.211,51.6047 91.632,42.0947 86.955,33.9947 Z" id="Fill-1761" fill="#FFFFFF"></path><path d="M72.0627,72.5605 C71.5807,74.1855 71.1547,74.9435 70.9077,75.2795 C70.8807,75.2435 70.8487,75.2025 70.8157,75.1555 C70.5277,74.7445 70.9587,73.7325 71.2437,73.0625 L71.2597,73.0285 C71.7197,71.9485 71.5957,71.1195 71.5067,70.5145 C71.4497,70.1255 71.4287,69.9595 71.5007,69.7305 C71.5597,69.5425 71.9127,69.3595 72.4457,69.1025 C72.6827,68.9885 72.9427,68.8625 73.2047,68.7115 L72.0627,72.5605 Z M76.7437,66.6205 L76.0167,63.8835 C75.8587,63.2855 75.3517,62.8455 74.7377,62.7715 C74.1227,62.7005 73.5267,63.0075 73.2317,63.5505 C73.0667,63.8555 72.9177,64.1785 72.7737,64.4915 C72.5317,65.0165 72.2807,65.5595 72.0197,65.8595 C71.8737,66.0275 71.4977,66.2095 71.1347,66.3855 C70.2657,66.8045 69.0757,67.3785 68.6217,68.8275 C68.3397,69.7265 68.4447,70.4365 68.5217,70.9565 C68.5877,71.4065 68.6027,71.5625 68.4827,71.8455 L68.4677,71.8805 C67.9877,73.0075 67.0937,75.1065 68.3467,76.8905 C69.2407,78.1625 70.1807,78.4905 70.9117,78.4905 C71.0537,78.4905 71.1887,78.4775 71.3137,78.4585 C72.8537,78.2065 74.0097,76.6045 74.9557,73.4185 L76.7307,67.4365 C76.8097,67.1705 76.8137,66.8885 76.7437,66.6205 Z" id="Fill-1763" fill="#FFFFFF"></path><path d="M55.6169,32.6035 L55.5149,32.5675 C54.7299,32.2925 53.8679,32.7065 53.5919,33.4925 C53.3159,34.2785 53.7299,35.1395 54.5159,35.4155 L54.6179,35.4505 C54.7839,35.5085 54.9519,35.5365 55.1169,35.5365 C55.7409,35.5365 56.3239,35.1465 56.5419,34.5265 C56.8169,33.7395 56.4029,32.8785 55.6169,32.6035" id="Fill-1765" fill="#FFFFFF"></path></g></g></g></svg> 